<svg width="18" height="13" viewBox="0 0 18 13" fill="none" xmlns="http://www.w3.org/2000/svg">
<path d="M18 11.7873C18 12.3762 17.5226 12.8535 16.9338 12.8535H10.0662C9.47735 12.8535 9 12.3762 9 11.7873C9 11.1985 9.47735 10.7211 10.0662 10.7211H16.9338C17.5226 10.7211 18 11.1985 18 11.7873ZM18 6.45633C18 7.04517 17.5226 7.52252 16.9338 7.52252H1.0662C0.477352 7.52252 0 7.04517 0 6.45633C0 5.86748 0.477353 5.39013 1.0662 5.39013H16.9338C17.5226 5.39013 18 5.86748 18 6.45633ZM18 1.12534C18 1.71418 17.5226 2.19154 16.9338 2.19154H1.0662C0.477352 2.19154 0 1.71418 0 1.12534C0 0.536496 0.477353 0.0591431 1.0662 0.0591431H16.9338C17.5226 0.0591431 18 0.536496 18 1.12534Z" fill="white"/>
</svg>
