<svg width="36" height="31" viewBox="0 0 36 31" fill="none" xmlns="http://www.w3.org/2000/svg">
<path d="M2.87375 30.3026C2.18952 30.5732 1.53951 30.5136 0.923704 30.124C0.307902 29.7357 0 29.1695 0 28.4254V20.8661C0 20.3926 0.136845 19.9698 0.410535 19.5977C0.684225 19.2257 1.06055 18.9889 1.53951 18.8875L16.4214 15.2346L1.53951 11.5818C1.06055 11.4803 0.684225 11.2436 0.410535 10.8715C0.136845 10.4995 0 10.0767 0 9.60318V2.04384C0 1.29974 0.307902 0.732872 0.923704 0.343236C1.53951 -0.0450467 2.18952 -0.103899 2.87375 0.166682L34.485 13.3575C35.3402 13.7295 35.7679 14.3553 35.7679 15.2346C35.7679 16.114 35.3402 16.7397 34.485 17.1118L2.87375 30.3026Z" fill="#25D366"/>
</svg>
