<svg width="22" height="22" viewBox="0 0 22 22" fill="none" xmlns="http://www.w3.org/2000/svg">
<path d="M21.2889 7.50041L14.6938 6.54232L11.7455 0.567891C11.665 0.404314 11.5325 0.271895 11.3689 0.191405C10.9585 -0.0111177 10.4598 0.157652 10.2546 0.567891L7.30634 6.54232L0.711168 7.50041C0.52934 7.52638 0.363097 7.61206 0.235817 7.74188C0.0819425 7.89997 -0.00284927 8.11265 7.31104e-05 8.3332C0.00299549 8.55375 0.0933929 8.76411 0.251402 8.91807L5.0231 13.5683L3.89576 20.1347C3.86932 20.2875 3.88623 20.4446 3.94457 20.5882C4.00291 20.7318 4.10035 20.8563 4.22583 20.9474C4.35131 21.0385 4.49981 21.0926 4.6545 21.1036C4.80919 21.1146 4.96388 21.0821 5.10102 21.0097L11.0001 17.9096L16.8991 21.0097C17.0601 21.0954 17.2472 21.124 17.4264 21.0928C17.8784 21.0149 18.1823 20.5865 18.1043 20.1347L16.977 13.5683L21.7487 8.91807C21.8786 8.79085 21.9643 8.62467 21.9903 8.44292C22.0604 7.98854 21.7435 7.56792 21.2889 7.50041Z" fill="#FECA0A"/>
</svg>
