<svg width="30" height="48" viewBox="0 0 30 48" fill="none" xmlns="http://www.w3.org/2000/svg">
<path d="M15 42.6667C16.0925 42.6667 18.6975 39.5013 21.0275 33.8347C23.3925 28.0907 25 20.9973 25 16.9413C25 10.464 20.4575 5.33333 15 5.33333C9.5425 5.33333 5 10.464 5 16.9413C5 20.9947 6.6075 28.0907 8.9725 33.8347C11.3 39.5013 13.9075 42.6667 15 42.6667ZM15 48C6.715 48 0 26.2987 0 16.9413C0 7.584 6.715 0 15 0C23.285 0 30 7.584 30 16.9413C30 26.2987 23.285 48 15 48ZM15 21.3333C16.3261 21.3333 17.5979 20.7714 18.5355 19.7712C19.4732 18.771 20 17.4145 20 16C20 14.5855 19.4732 13.229 18.5355 12.2288C17.5979 11.2286 16.3261 10.6667 15 10.6667C13.6739 10.6667 12.4021 11.2286 11.4645 12.2288C10.5268 13.229 10 14.5855 10 16C10 17.4145 10.5268 18.771 11.4645 19.7712C12.4021 20.7714 13.6739 21.3333 15 21.3333Z" fill="white"/>
</svg>
