<svg width="76" height="51" viewBox="0 0 76 51" fill="none" xmlns="http://www.w3.org/2000/svg">
<path d="M44.863 51H63.4085C65.7 51 67.6473 50.483 69.2642 49.5824L44.863 35.0266V51ZM74.6053 41.9707C74.8696 40.7919 75.004 39.5435 75.004 38.2488V32.4534H58.6493L74.6007 41.9707H74.6053ZM1.22326 8.99339C0.948563 10.2266 0.812492 11.4866 0.817581 12.75V18.5455H17.2349L1.22326 8.99339ZM30.9539 0H12.4085C10.1332 0 8.19867 0.51 6.5887 1.39786L30.9539 15.9329V0ZM6.66288 49.6392C8.25779 50.5016 10.1668 51 12.4085 51H30.9539V35.1483L6.66288 49.6392ZM0.817581 32.4545V38.25C0.817581 39.5841 0.958991 40.8695 1.23833 42.0785L17.3717 32.4545H0.817581ZM69.3372 1.45466C67.7076 0.529705 65.7336 0 63.4085 0H44.863V16.0546L69.3372 1.45466ZM74.9994 18.5455V12.75C74.9994 11.482 74.8684 10.2591 74.6146 9.10234L58.786 18.5455H74.9994Z" fill="#2E3192"/>
<path d="M58.9684 18.5455L74.7969 9.10234C74.0713 5.7827 72.3049 3.0345 69.5196 1.45466L45.0454 16.0546V0H42.7272V20.8636H75.1818V18.5455H58.9684ZM0.999939 30.1364V32.4545H17.5541L1.42069 42.0785C2.18685 45.3877 4.00662 48.1046 6.84523 49.6392L31.1363 35.1483V51H33.4545V30.1364H0.999939ZM75.1818 30.1364H42.7272V51H45.0454V35.0266L69.4466 49.5836C72.2527 48.0211 74.0412 45.288 74.783 41.973L58.8316 32.4545H75.1818V30.1364ZM31.1363 0V15.9329L6.77105 1.39786C3.95446 2.95105 2.15439 5.67955 1.40446 8.99339L17.4173 18.5455H0.999939V20.8636H33.4545V0H31.1363Z" fill="#E6E7E8"/>
<path d="M42.5447 20.8636V0H33.272V20.8636H0.817444V30.1364H33.272V51H42.5447V30.1364H74.9993V20.8636H42.5447Z" fill="#BE1E2D"/>
<path d="M26.2455 18.5456L3.00573 4.67239C2.50617 5.41421 2.10512 6.23021 1.77362 7.09953L20.9531 18.5456H26.242H26.2455ZM73.9444 44.1499L54.4566 32.4546H49.0599L72.6045 46.6176C73.1505 45.8546 73.6005 45.0274 73.9444 44.1545V44.1499ZM71.1962 2.77148L44.8269 18.5456L50.1807 18.549L72.9348 4.92623C72.4272 4.00244 71.8917 3.40667 71.1962 2.77148ZM2.9188 46.2189C3.4402 47.0129 4.06766 47.732 4.78378 48.3562L31.0268 32.4546H25.7378L2.9188 46.2189Z" fill="#BE1E2D"/>
</svg>
