<svg width="64" height="64" viewBox="0 0 64 64" fill="none" xmlns="http://www.w3.org/2000/svg">
<path d="M0 32C0 49.6723 14.3277 64 32 64C49.6723 64 64 49.6723 64 32C64 14.3277 49.6723 0 32 0C14.3277 0 0 14.3277 0 32ZM38.7692 20.5938L38.7692 43.4062C38.7689 43.8736 38.6354 44.3313 38.3844 44.7257C38.1335 45.1201 37.7754 45.4349 37.3521 45.6333C36.9288 45.8316 36.4577 45.9053 35.9941 45.8457C35.5304 45.7862 35.0933 45.5958 34.7338 45.2969L21.0277 33.8923C20.75 33.6613 20.5266 33.372 20.3733 33.045C20.2199 32.718 20.1404 32.3612 20.1404 32C20.1404 31.6388 20.2199 31.282 20.3733 30.955C20.5266 30.628 20.75 30.3387 21.0277 30.1077L34.7338 18.7031C35.0933 18.4042 35.5304 18.2138 35.9941 18.1543C36.4577 18.0947 36.9288 18.1684 37.3521 18.3667C37.7754 18.5651 38.1335 18.8799 38.3844 19.2743C38.6354 19.6687 38.7689 20.1264 38.7692 20.5938Z" fill="white" fill-opacity="0.4"/>
</svg>
