<svg width="33" height="26" viewBox="0 0 33 26" fill="none" xmlns="http://www.w3.org/2000/svg">
<path d="M29.7 26H3.3C2.42479 26 1.58542 25.6576 0.966547 25.0481C0.347677 24.4386 0 23.612 0 22.75V3.10863C0.0370139 2.27141 0.400965 1.48063 1.01587 0.901389C1.63077 0.322145 2.4491 -0.000791763 3.3 1.45782e-06H29.7C30.5752 1.45782e-06 31.4146 0.342411 32.0335 0.951904C32.6523 1.5614 33 2.38805 33 3.25V22.75C33 23.612 32.6523 24.4386 32.0335 25.0481C31.4146 25.6576 30.5752 26 29.7 26ZM3.3 6.2855V22.75H29.7V6.2855L16.5 14.95L3.3 6.2855ZM4.62 3.25L16.5 11.05L28.38 3.25H4.62Z" fill="white"/>
</svg>
