<svg width="64" height="64" viewBox="0 0 64 64" fill="none" xmlns="http://www.w3.org/2000/svg">
<path d="M64 32C64 14.3277 49.6723 2.56213e-06 32 1.01717e-06C14.3277 -5.27794e-07 -3.2869e-06 14.3277 -4.83187e-06 32C-6.37683e-06 49.6723 14.3277 64 32 64C49.6723 64 64 49.6723 64 32ZM25.2308 43.4062L25.2308 20.5938C25.2311 20.1264 25.3646 19.6687 25.6156 19.2743C25.8665 18.8799 26.2246 18.5651 26.6479 18.3667C27.0712 18.1684 27.5423 18.0947 28.0059 18.1543C28.4696 18.2138 28.9067 18.4042 29.2662 18.7031L42.9723 30.1077C43.25 30.3387 43.4734 30.628 43.6267 30.955C43.7801 31.282 43.8596 31.6388 43.8596 32C43.8596 32.3612 43.7801 32.718 43.6267 33.045C43.4734 33.372 43.25 33.6613 42.9723 33.8923L29.2662 45.2969C28.9067 45.5958 28.4696 45.7862 28.0059 45.8457C27.5423 45.9053 27.0712 45.8316 26.6479 45.6333C26.2246 45.4349 25.8665 45.1201 25.6156 44.7257C25.3646 44.3313 25.2311 43.8736 25.2308 43.4062Z" fill="white" fill-opacity="0.4"/>
</svg>
